HIERARCHY
ROOT Hips
{
	OFFSET 0.00000 0.00000 0.00000
	CHANNELS 6 Xposition Yposition Zposition Zrotation Yrotation Xrotation 
	JOINT LHipJoint
	{
		OFFSET 0 0 0
		CHANNELS 3 Zrotation Yrotation Xrotation
		JOINT LeftUpLeg
		{
			OFFSET 1.28858 -1.83292 1.03970
			CHANNELS 3 Zrotation Yrotation Xrotation
			JOINT LeftLeg
			{
				OFFSET 2.47846 -6.80952 0.00000
				CHANNELS 3 Zrotation Yrotation Xrotation
				JOINT LeftFoot
				{
					OFFSET 2.75274 -7.56311 0.00000
					CHANNELS 3 Zrotation Yrotation Xrotation
					JOINT LeftToeBase
					{
						OFFSET 0.12848 -0.35301 1.68223
						CHANNELS 3 Zrotation Yrotation Xrotation
						End Site
						{
							OFFSET 0.00000 -0.00000 0.87311
						}
					}
				}
			}
		}
	}
	JOINT RHipJoint
	{
		OFFSET 0 0 0
		CHANNELS 3 Zrotation Yrotation Xrotation
		JOINT RightUpLeg
		{
			OFFSET -1.31183 -1.83292 1.03970
			CHANNELS 3 Zrotation Yrotation Xrotation
			JOINT RightLeg
			{
				OFFSET -2.44740 -6.72417 0.00000
				CHANNELS 3 Zrotation Yrotation Xrotation
				JOINT RightFoot
				{
					OFFSET -2.67343 -7.34519 0.00000
					CHANNELS 3 Zrotation Yrotation Xrotation
					JOINT RightToeBase
					{
						OFFSET -0.16914 -0.46471 1.77626
						CHANNELS 3 Zrotation Yrotation Xrotation
						End Site
						{
							OFFSET -0.00000 -0.00000 0.92777
						}
					}
				}
			}
		}
	}
	JOINT LowerBack
	{
		OFFSET 0 0 0
		CHANNELS 3 Zrotation Yrotation Xrotation
		JOINT Spine
		{
			OFFSET 0.01249 2.14252 0.03842
			CHANNELS 3 Zrotation Yrotation Xrotation
			JOINT Spine1
			{
				OFFSET -0.02957 2.14199 -0.03751
				CHANNELS 3 Zrotation Yrotation Xrotation
				JOINT Neck
				{
					OFFSET 0 0 0
					CHANNELS 3 Zrotation Yrotation Xrotation
					JOINT Neck1
					{
						OFFSET -0.01678 1.65709 -0.05476
						CHANNELS 3 Zrotation Yrotation Xrotation
						JOINT Head
						{
							OFFSET 0.07912 1.58331 -0.11843
							CHANNELS 3 Zrotation Yrotation Xrotation
							End Site
							{
								OFFSET 0.03298 1.73940 -0.04271
							}
						}
					}
				}
				JOINT LeftShoulder
				{
					OFFSET 0 0 0
					CHANNELS 3 Zrotation Yrotation Xrotation
					JOINT LeftArm
					{
						OFFSET 3.39556 1.16496 0.08673
						CHANNELS 3 Zrotation Yrotation Xrotation
						JOINT LeftForeArm
						{
							OFFSET 5.23910 -0.00000 -0.00000
							CHANNELS 3 Zrotation Yrotation Xrotation
							JOINT LeftHand
							{
								OFFSET 3.31467 -0.00000 0.00000
								CHANNELS 3 Zrotation Yrotation Xrotation
								JOINT LeftFingerBase
								{
									OFFSET 0 0 0
									CHANNELS 3 Zrotation Yrotation Xrotation
									JOINT LeftHandIndex1
									{
										OFFSET 0.96590 -0.00000 0.00000
										CHANNELS 3 Zrotation Yrotation Xrotation
										End Site
										{
											OFFSET 0.77873 -0.00000 0.00000
										}
									}
								}
								JOINT LThumb
								{
									OFFSET 0 0 0
									CHANNELS 3 Zrotation Yrotation Xrotation
									End Site
									{
										OFFSET 0.79062 -0.00000 0.79062
									}
								}
							}
						}
					}
				}
				JOINT RightShoulder
				{
					OFFSET 0 0 0
					CHANNELS 3 Zrotation Yrotation Xrotation
					JOINT RightArm
					{
						OFFSET -3.27193 1.31331 0.33940
						CHANNELS 3 Zrotation Yrotation Xrotation
						JOINT RightForeArm
						{
							OFFSET -5.30252 -0.00000 0.00000
							CHANNELS 3 Zrotation Yrotation Xrotation
							JOINT RightHand
							{
								OFFSET -3.67875 -0.00000 0.00000
								CHANNELS 3 Zrotation Yrotation Xrotation
								JOINT RightFingerBase
								{
									OFFSET 0 0 0
									CHANNELS 3 Zrotation Yrotation Xrotation
									JOINT RightHandIndex1
									{
										OFFSET -0.59481 -0.00000 0.00000
										CHANNELS 3 Zrotation Yrotation Xrotation
										End Site
										{
											OFFSET -0.47955 -0.00000 0.00000
										}
									}
								}
								JOINT RThumb
								{
									OFFSET 0 0 0
									CHANNELS 3 Zrotation Yrotation Xrotation
									End Site
									{
										OFFSET -0.48687 -0.00000 0.48687
									}
								}
							}
						}
					}
				}
			}
		}
	}
}
MOTION
Frames: 9
Frame Time: 0.0408163
0.00 0.00 0.00 -404.9920 61.5490 481.2360 0.0000 0.0000 0.0000 60.5700 -27.2631 -6.5367 0.1005 -2.0445 -5.6288 13.9566 -7.1223 -72.4733 8.6470 16.5751 54.8611 0.0000 0.0000 0.0000 1.3394 12.0699 24.8943 -0.0089 -0.6076 1.6696 7.9639 -44.2912 -32.1082 -5.7134 -14.1447 43.8203 -3.5321 -4.6214 -1.7547 -8.7366 -6.6179 -5.1497 -7.0415 -3.2871 -5.0843 0.9790 -10.8404 -4.2848 2.8608 -15.9474 -27.1060 1.5240 -7.7174 -7.5593 0.0000 0.0000 0.0000 60.4523 -46.7848 -73.9229 18.1819 -28.3894 -4.6354 -0.0000 -0.0000 5.5118 78.0100 -30.2174 -67.1213 -7.1250 0.0000 -0.0000 25.8040 -35.7819 -37.9616 0.0000 0.0000 0.0000 -27.3801 23.3729 -61.2654 -27.8170 38.9472 -10.0085 0.0000 0.0000 23.8720 -48.6515 -36.7436 34.2077 7.1250 -0.0000 -0.0000 -32.3653 -76.6639 24.5135
0.00 0.00 0.00 -403.7430 65.1481 483.8520 0.0000 0.0000 0.0000 55.0737 -40.3041 3.2481 0.2064 -2.9253 -8.0708 19.8478 -10.8036 -89.5606 8.4032 16.4080 54.0024 0.0000 0.0000 0.0000 -0.3618 13.4399 24.8131 -0.0017 -0.2635 0.7239 5.7637 -41.9266 -37.9971 -6.4118 -14.8159 46.6128 -3.0575 -4.6638 -2.4253 -8.0718 -6.6382 -5.5770 -6.6309 -3.3113 -5.1220 0.8699 -10.8634 -4.9739 2.7079 -15.9148 -26.5244 1.4111 -7.6661 -7.2535 -0.0000 -0.0000 0.0000 60.8089 -46.1228 -73.6779 18.0346 -28.2015 -4.5656 -0.0000 -0.0000 6.4459 78.6337 -30.1197 -68.1691 -7.1250 0.0000 -0.0000 26.2921 -36.4834 -38.7746 -0.0000 -0.0000 0.0000 -25.8363 23.8969 -60.4080 -27.6721 38.8126 -9.9175 0.0000 0.0000 23.8035 -49.7269 -38.2995 36.1858 7.1250 -0.0000 -0.0000 -37.5746 -78.5422 30.0093
0.00 0.00 0.00 -401.5810 68.3603 487.0620 0.0000 0.0000 0.0000 47.0648 -49.5415 12.4910 0.2375 -3.1367 -8.6595 24.3275 -16.6612 -102.7292 8.6194 16.5565 54.7644 0.0000 0.0000 0.0000 -1.2167 16.3007 25.4779 -0.0000 -0.0043 0.0118 2.4648 -38.6490 -45.2679 -7.0644 -15.3859 49.1173 -3.3427 -4.8005 -2.2713 -7.5413 -6.8489 -5.9541 -5.8720 -3.3831 -5.5243 -0.2472 -11.0687 -5.5671 4.1779 -15.7978 -25.5512 1.9215 -7.6711 -6.6062 -0.0000 -0.0000 0.0000 62.0436 -45.8607 -74.9413 17.5535 -27.5816 -4.3405 -0.0000 -0.0000 8.2630 79.2802 -30.5426 -69.5684 -7.1250 0.0000 -0.0000 26.5797 -37.6695 -39.2555 -0.0000 -0.0000 0.0000 -24.3413 24.9868 -60.3618 -27.1469 38.3189 -9.5901 0.0000 0.0000 22.8460 -51.9694 -39.6783 39.2252 7.1250 -0.0000 -0.0000 -49.0394 -80.2862 41.2486
0.00 0.00 0.00 -398.4040 74.1906 492.3770 0.0000 0.0000 0.0000 -76.8418 50.3398 -147.9713 0.2488 3.2093 8.8620 -167.1157 21.0620 68.7839 8.2677 16.3126 53.5211 0.0000 0.0000 0.0000 -4.2698 19.8804 24.0732 -0.0037 0.3913 -1.0751 -1.2754 -34.7576 -52.2411 -7.9919 -16.1133 52.5334 -2.3833 -4.7990 -3.1847 -6.1230 -6.8080 -6.6681 -4.9496 -3.3977 -5.6756 -0.6573 -10.8647 -6.0226 4.2181 -15.3919 -25.5119 1.9405 -7.3939 -6.4887 0.0000 0.0000 0.0000 60.2513 -44.8462 -73.8341 17.6409 -27.6950 -4.3811 -0.0000 -0.0000 10.3593 80.7810 -30.3743 -72.2042 -7.1250 0.0000 -0.0000 27.8058 -39.4713 -41.2384 0.0000 0.0000 0.0000 -23.9677 27.8027 -61.0262 -26.0489 37.2569 -8.9172 0.0000 0.0000 21.5244 -54.8308 -40.3435 42.5753 7.1250 -0.0000 -0.0000 -64.6136 -80.9769 56.1071
0.00 0.00 0.00 -391.8940 80.1884 500.1860 0.0000 0.0000 0.0000 37.3995 -40.4402 16.3743 0.2261 -3.0607 -8.4478 -159.5303 -25.6489 -91.3667 8.4107 16.4132 54.0288 0.0000 0.0000 0.0000 -6.5086 25.7594 23.9845 -0.0177 0.8581 -2.3584 -6.4274 -28.8604 -61.4063 -8.6164 -16.5544 54.7539 -1.0513 -4.5313 -3.1609 -4.8147 -6.4254 -6.9244 -4.3016 -3.2648 -5.9051 -2.4012 -10.8571 -5.7515 2.9580 -15.5073 -26.1018 1.8388 -7.0134 -6.7026 0.0000 0.0000 0.0000 59.8403 -42.7558 -72.2159 17.4551 -27.4538 -4.2950 -0.0000 -0.0000 10.7208 81.1030 -29.9090 -72.5704 -7.1250 0.0000 -0.0000 28.2801 -39.5304 -42.0173 0.0000 0.0000 0.0000 -23.3909 30.3424 -62.2351 -25.6760 36.8870 -8.6925 0.0000 0.0000 20.8070 -58.2401 -42.0272 47.2411 7.1250 -0.0000 -0.0000 -89.9393 -81.4301 81.2712
0.00 0.00 0.00 -382.8740 83.8570 509.7330 0.0000 0.0000 0.0000 36.9027 -32.3021 13.1557 0.1486 -2.4841 -6.8456 -164.5218 -27.4727 -76.8030 8.4042 16.4087 54.0060 0.0000 0.0000 0.0000 -9.7757 28.0865 22.4842 -0.0267 1.0558 -2.9022 -7.7482 -27.5789 -63.9932 -8.6819 -16.5986 54.9835 -0.4786 -4.3679 -2.4920 -3.8953 -6.2038 -7.0777 -3.5979 -3.1721 -6.3776 -0.5078 -10.3972 -6.2351 1.5720 -15.1403 -26.6881 1.1183 -6.8292 -7.0935 -0.0000 -0.0000 0.0000 60.3955 -41.4095 -73.0512 16.5038 -26.1990 -3.8657 -0.0000 -0.0000 11.9885 81.6861 -30.4524 -73.9161 -7.1250 0.0000 -0.0000 28.5014 -40.7237 -42.3301 -0.0000 -0.0000 0.0000 -22.6277 32.0422 -63.5987 -25.9197 37.1293 -8.8392 0.0000 0.0000 19.3269 -60.7675 -42.1577 50.1785 7.1250 -0.0000 -0.0000 -92.6846 80.6526 -102.1843
0.00 0.00 0.00 -345.8610 87.0864 547.3300 0.0000 0.0000 0.0000 36.4276 -24.8585 10.6865 0.0732 -1.7450 -4.8014 -169.4662 -30.1406 -61.9615 8.1969 16.2621 53.2687 0.0000 0.0000 0.0000 -12.8492 30.8430 20.7464 -0.0354 1.2139 -3.3376 -9.7747 -25.4985 -67.9538 -8.8836 -16.7322 55.6866 0.4874 -4.0260 -1.9150 -2.9179 -5.7149 -7.2843 -3.0749 -2.9724 -6.8804 -1.5787 -10.4087 -6.4043 2.9823 -14.7780 -26.1618 1.6645 -6.7162 -6.6884 0.0000 0.0000 0.0000 58.9378 -39.4034 -70.0904 16.9261 -26.7603 -4.0540 -0.0000 -0.0000 10.2036 81.0978 -30.3832 -72.7927 -7.1250 0.0000 -0.0000 28.0547 -39.8942 -41.6331 0.0000 0.0000 0.0000 -22.2148 34.2518 -65.2477 -26.7495 37.9393 -9.3447 0.0000 0.0000 18.4322 -61.5948 -41.9712 51.0379 7.1250 -0.0000 -0.0000 -94.7577 80.2704 -104.6645
0.00 0.00 0.00 -262.3650 84.4760 631.4080 0.0000 0.0000 0.0000 34.7625 -17.9649 8.3539 0.0027 -0.3384 -0.9298 -175.2413 -32.5530 -43.0273 7.8987 16.0443 52.1971 0.0000 0.0000 0.0000 -17.8551 34.7308 18.4529 -0.0504 1.4484 -3.9834 -13.2444 -20.5502 -74.6540 -9.1801 -16.9222 56.7108 1.6639 -3.9221 -0.8237 -1.0748 -5.4801 -7.2800 -1.7267 -2.8924 -7.4030 -0.7191 -9.9333 -7.8680 2.6855 -14.0223 -25.5479 1.3115 -6.4133 -6.3492 0.0000 0.0000 0.0000 61.3106 -37.6072 -76.2095 14.2882 -23.1453 -2.9405 -0.0000 -0.0000 15.5947 79.6431 -30.4368 -70.1626 -7.1250 0.0000 -0.0000 26.8980 -38.0451 -39.7751 0.0000 0.0000 0.0000 -22.6482 37.0197 -66.5987 -28.1547 39.2583 -10.2214 0.0000 0.0000 18.2563 -62.7375 -42.7415 52.7917 7.1250 -0.0000 -0.0000 -103.4968 80.0851 -113.4716
0.00 0.00 0.00 -238.5490 56.0038 653.1270 0.0000 0.0000 0.0000 12.4596 -18.3696 17.2996 0.0288 1.0960 3.0130 -175.2138 -26.3616 -41.4586 8.9564 16.7796 55.9393 0.0000 0.0000 0.0000 -59.2606 35.2059 -5.9174 -0.1011 2.0501 -5.6441 -17.4383 -26.5940 -84.8382 -6.7376 -15.1069 47.8748 5.6388 -3.6037 6.4536 5.1316 -3.6329 -5.1778 2.8317 -1.8522 -9.1779 -1.6955 -9.9673 -7.9573 1.7501 -13.8276 -26.1176 1.1388 -5.7867 -6.5291 -0.0000 0.0000 0.0000 67.7846 -30.5736 -87.6244 15.3210 -24.5914 -3.3584 -0.0000 -0.0000 11.3032 55.6722 -24.5672 -31.3350 -7.1250 0.0000 -0.0000 15.0455 -7.8770 -17.5411 -0.0000 0.0000 0.0000 -32.3430 44.6425 -80.1236 -23.1678 34.2717 -7.2325 0.0000 0.0000 20.5657 -71.6375 -46.8707 65.5434 7.1250 -0.0000 -0.0000 -142.0774 74.5298 -152.6637
